<?xml version="1.0" encoding="utf-8"?>
<!-- Generator: Adobe Illustrator 21.1.0, SVG Export Plug-In . SVG Version: 6.00 Build 0)  -->
<svg version="1.1" id="Layer_1" xmlns="http://www.w3.org/2000/svg" xmlns:xlink="http://www.w3.org/1999/xlink" x="0px" y="0px"
	 width="33px" height="33px" viewBox="0 0 33 33" style="enable-background:new 0 0 33 33;" xml:space="preserve">
<style type="text/css">
	.st0{fill:#313A6C;}
	.st1{fill:#FFFFFF;stroke:#FFAB00;stroke-width:5;stroke-miterlimit:10;}
</style>
<g>
	<path class="st0" d="M16.5,0.2C7.6,0.2,0.4,7.4,0.4,16.3s7.2,16.2,16.1,16.2s16.2-7.2,16.2-16.1S25.4,0.2,16.5,0.2z"/>
	<path class="st1" d="M13.6,24.3c-0.2,0-0.6-0.1-0.7-0.2l-5.7-5.6c-0.3-0.3-0.3-0.7,0-1s0.7-0.3,1,0l5.1,5.1L24.7,10
		c0.3-0.3,0.7-0.3,1,0s0.3,0.7,0,1L13.8,24.1C13.7,24.2,13.7,24.3,13.6,24.3z"/>
</g>
</svg>
