<?xml version="1.0" encoding="utf-8"?>
<!-- Generator: Adobe Illustrator 21.1.0, SVG Export Plug-In . SVG Version: 6.00 Build 0)  -->
<svg version="1.1" id="Layer_1" xmlns="http://www.w3.org/2000/svg" xmlns:xlink="http://www.w3.org/1999/xlink" x="0px" y="0px"
	 width="35px" height="47px" viewBox="0 0 35 47" style="enable-background:new 0 0 35 47;" xml:space="preserve">
<style type="text/css">
	.st0{fill:#FF6D00;}
	.st1{fill:#4CAF50;}
	.st2{fill:#AA721B;}
	.st3{fill:#FFAB00;}
	.st4{fill:#64DD17;}
</style>
<title>Asset 1</title>
<g id="Layer_2">
	<g id="Layer_1-2">
		<g id="_90424e1c-246a-4627-941f-dc3d024f819d">
			<path class="st0" d="M34.6,28.6C34.1,17,22.3,16,22.3,16c-5.7-1.2-7.7,3-6.9,7.1c0,0,2,16.8,3.9,23.3C23,42.9,35,40.5,34.6,28.6z
				"/>
			<path class="st1" d="M14.6,1.5c3.3,3.2,6.2,7.2,6.8,11.7c0.3,3-0.5,6-2,8.6c-3.9-0.9-6.9-4.4-7.1-8.7C12.2,9.1,12.9,5.1,14.6,1.5
				z"/>
			<path class="st2" d="M20,21.9c1.1-8.6,9.9-9,9.9-9l-1.1-2.6c-5.4,1.1-9.6,5.7-10.5,11.4C19.1,21.7,19.5,21.7,20,21.9z"/>
			<path class="st3" d="M29.9,31.6c0-9.9-11.1-9.9-11.1-9.9c-1.4-2-3.5-3-5.6-2.6c-2.1,0-4.2,0.3-6.2,1.1l-0.2,0.3
				c-4.1,4.7-4.2,12.2-0.2,17c3.9,4.8,10.2,7.2,12.8,9C19.4,43.3,29.9,39.9,29.9,31.6z"/>
			<path id="e75eadba-98be-434f-9595-807cd3e4bf6a" class="st4" d="M10.8,12.6c-3.5-0.9-6.9-1.4-10.2-1.5c1.1,3.2,3,6.2,5.7,8.4
				c3.6,3,8.3,3.8,12.8,2.3C19.1,19.8,15.8,14.1,10.8,12.6z"/>
		</g>
	</g>
</g>
</svg>
